HIERARCHY
ROOT Hips
{
	OFFSET 0.000000 71.427986 0.000000
	CHANNELS 6 Xposition Yposition Zposition Xrotation Yrotation Zrotation
	JOINT Pelvis
	{
		OFFSET 0.000000 0.000000 0.000000
		CHANNELS 3 Xrotation Yrotation Zrotation
		JOINT LeftUpLeg
		{
			OFFSET 6.797100 -2.508499 -1.318700
			CHANNELS 3 Xrotation Yrotation Zrotation
			JOINT LeftLeg
			{
				OFFSET 0.069008 -29.241863 0.690200
				CHANNELS 3 Xrotation Yrotation Zrotation
				JOINT LeftFoot
				{
					OFFSET -0.069008 -29.568123 -0.266800
					CHANNELS 3 Xrotation Yrotation Zrotation
					JOINT LeftToeBase
					{
						OFFSET 3.145500 -8.631000 16.059900
						CHANNELS 3 Xrotation Yrotation Zrotation
						End Site
						{
							OFFSET 0.000000 18.501587 0.000000
						}
					}
				}
			}
			JOINT Left_ShortSleeve
			{
				OFFSET 0.265923 -10.480953 1.153800
				CHANNELS 3 Xrotation Yrotation Zrotation
				End Site
				{
					OFFSET 1.725763 19.823879 0.000000
				}
			}
		}
		JOINT RightUpLeg
		{
			OFFSET -6.797100 -2.508499 -1.318700
			CHANNELS 3 Xrotation Yrotation Zrotation
			JOINT RightLeg
			{
				OFFSET -0.082453 -29.241932 0.688000
				CHANNELS 3 Xrotation Yrotation Zrotation
				JOINT RightFoot
				{
					OFFSET 0.082453 -29.568058 -0.264600
					CHANNELS 3 Xrotation Yrotation Zrotation
					JOINT RightToeBase
					{
						OFFSET -3.115300 -8.682800 16.113400
						CHANNELS 3 Xrotation Yrotation Zrotation
						End Site
						{
							OFFSET 0.000000 18.567114 0.000000
						}
					}
				}
			}
			JOINT Right_ShortSleeve
			{
				OFFSET -0.265923 -10.480953 1.153800
				CHANNELS 3 Xrotation Yrotation Zrotation
				End Site
				{
					OFFSET -1.725766 19.823910 0.000000
				}
			}
		}
	}
	JOINT Spine
	{
		OFFSET 0.000000 13.368103 0.470500
		CHANNELS 3 Xrotation Yrotation Zrotation
		JOINT Spine1
		{
			OFFSET 0.147000 13.837402 0.538800
			CHANNELS 3 Xrotation Yrotation Zrotation
			JOINT Spine2
			{
				OFFSET 0.168000 16.242897 -1.435500
				CHANNELS 3 Xrotation Yrotation Zrotation
				JOINT Neck
				{
					OFFSET 0.217200 18.631500 -1.679100
					CHANNELS 3 Xrotation Yrotation Zrotation
					JOINT Head
					{
						OFFSET 0.000000 6.599396 1.385900
						CHANNELS 3 Xrotation Yrotation Zrotation
						JOINT Hat
						{
							OFFSET -0.532200 27.220596 -10.096100
							CHANNELS 3 Xrotation Yrotation Zrotation
							End Site
							{
								OFFSET 0.000000 22.029861 0.000000
							}
						}
						JOINT HairD
						{
							OFFSET -10.777400 17.437393 -1.325900
							CHANNELS 3 Xrotation Yrotation Zrotation
							JOINT HairD1
							{
								OFFSET -3.290299 -11.051193 1.062200
								CHANNELS 3 Xrotation Yrotation Zrotation
								End Site
								{
									OFFSET 0.000000 11.579437 0.000000
								}
							}
						}
						JOINT HairB
						{
							OFFSET -10.777400 17.437393 1.467900
							CHANNELS 3 Xrotation Yrotation Zrotation
							JOINT HairB1
							{
								OFFSET -1.561200 -12.956299 3.590200
								CHANNELS 3 Xrotation Yrotation Zrotation
								End Site
								{
									OFFSET 0.000000 13.534866 0.000000
								}
							}
						}
						JOINT HairA
						{
							OFFSET 9.713100 17.437393 1.467900
							CHANNELS 3 Xrotation Yrotation Zrotation
							JOINT HairA1
							{
								OFFSET 1.561200 -12.956299 3.590200
								CHANNELS 3 Xrotation Yrotation Zrotation
								End Site
								{
									OFFSET 0.000000 13.534866 0.000000
								}
							}
						}
						JOINT HairC
						{
							OFFSET 9.713100 17.437393 -1.325900
							CHANNELS 3 Xrotation Yrotation Zrotation
							JOINT HairC1
							{
								OFFSET 3.290300 -11.051193 1.062200
								CHANNELS 3 Xrotation Yrotation Zrotation
								End Site
								{
									OFFSET 0.000000 11.579437 0.000000
								}
							}
						}
					}
				}
				JOINT LeftShoulder
				{
					OFFSET 5.101800 15.108002 -2.763700
					CHANNELS 3 Xrotation Yrotation Zrotation
					JOINT LeftArm
					{
						OFFSET 9.825497 2.506317 -1.597400
						CHANNELS 3 Xrotation Yrotation Zrotation
						JOINT LeftForeArm
						{
							OFFSET 21.966244 0.000000 0.000000
							CHANNELS 3 Xrotation Yrotation Zrotation
							JOINT LeftHand
							{
								OFFSET 33.879036 0.000000 0.000000
								CHANNELS 3 Xrotation Yrotation Zrotation
								JOINT LeftHandThumb1
								{
									OFFSET 6.715286 -2.359680 3.363841
									CHANNELS 3 Xrotation Yrotation Zrotation
									JOINT LeftHandThumb2
									{
										OFFSET 2.507072 -1.447464 1.447461
										CHANNELS 3 Xrotation Yrotation Zrotation
										JOINT LeftHandThumb3
										{
											OFFSET 2.898338 -1.673355 1.673357
											CHANNELS 3 Xrotation Yrotation Zrotation
											End Site
											{
												OFFSET -0.295959 3.727692 -0.131651
											}
										}
									}
								}
								JOINT LeftHandIndex1
								{
									OFFSET 14.190811 -0.254547 3.840278
									CHANNELS 3 Xrotation Yrotation Zrotation
									JOINT LeftHandIndex2
									{
										OFFSET 3.551727 0.000000 -0.000000
										CHANNELS 3 Xrotation Yrotation Zrotation
										JOINT LeftHandIndex3
										{
											OFFSET 2.894196 0.000000 0.000000
											CHANNELS 3 Xrotation Yrotation Zrotation
											End Site
											{
												OFFSET -1.000603 2.690872 0.366626
											}
										}
									}
								}
								JOINT LeftHandMiddle1
								{
									OFFSET 13.776489 0.000000 0.000000
									CHANNELS 3 Xrotation Yrotation Zrotation
									JOINT LeftHandMiddle2
									{
										OFFSET 3.438232 0.000000 0.000000
										CHANNELS 3 Xrotation Yrotation Zrotation
										JOINT LeftHandMiddle3
										{
											OFFSET 3.691551 0.000000 0.000000
											CHANNELS 3 Xrotation Yrotation Zrotation
											End Site
											{
												OFFSET -1.082298 3.499527 0.457670
											}
										}
									}
								}
								JOINT LeftHandRing1
								{
									OFFSET 13.966164 -0.268127 -3.067488
									CHANNELS 3 Xrotation Yrotation Zrotation
									JOINT LeftHandRing2
									{
										OFFSET 3.162567 0.000000 0.000000
										CHANNELS 3 Xrotation Yrotation Zrotation
										JOINT LeftHandRing3
										{
											OFFSET 3.324348 0.000000 0.000000
											CHANNELS 3 Xrotation Yrotation Zrotation
											End Site
											{
												OFFSET -0.861900 3.184998 0.405154
											}
										}
									}
								}
								JOINT LeftHandPinky1
								{
									OFFSET 13.131393 -0.168503 -5.746925
									CHANNELS 3 Xrotation Yrotation Zrotation
									JOINT LeftHandPinky2
									{
										OFFSET 2.849182 0.000000 0.000000
										CHANNELS 3 Xrotation Yrotation Zrotation
										JOINT LeftHandPinky3
										{
											OFFSET 2.805038 0.000000 0.000000
											CHANNELS 3 Xrotation Yrotation Zrotation
											End Site
											{
												OFFSET -0.882500 2.642609 0.325652
											}
										}
									}
								}
							}
							JOINT Left_Sleeve
							{
								OFFSET 6.592125 -0.646545 0.805568
								CHANNELS 3 Xrotation Yrotation Zrotation
								End Site
								{
									OFFSET -0.000179 20.275787 -0.000000
								}
							}
						}
					}
				}
				JOINT RightShoulder
				{
					OFFSET -5.731700 15.108002 -2.763700
					CHANNELS 3 Xrotation Yrotation Zrotation
					JOINT RightArm
					{
						OFFSET -9.825497 2.506317 -1.597400
						CHANNELS 3 Xrotation Yrotation Zrotation
						JOINT RightForeArm
						{
							OFFSET -21.966242 0.000000 0.000000
							CHANNELS 3 Xrotation Yrotation Zrotation
							JOINT RightHand
							{
								OFFSET -33.879032 0.000000 0.000000
								CHANNELS 3 Xrotation Yrotation Zrotation
								JOINT RightHandThumb1
								{
									OFFSET -6.715286 -2.359680 3.363841
									CHANNELS 3 Xrotation Yrotation Zrotation
									JOINT RightHandThumb2
									{
										OFFSET -2.507072 -1.447464 1.447461
										CHANNELS 3 Xrotation Yrotation Zrotation
										JOINT RightHandThumb3
										{
											OFFSET -2.898338 -1.673355 1.673357
											CHANNELS 3 Xrotation Yrotation Zrotation
											End Site
											{
												OFFSET 0.295959 3.727692 -0.131651
											}
										}
									}
								}
								JOINT RightHandIndex1
								{
									OFFSET -14.190811 -0.254547 3.840278
									CHANNELS 3 Xrotation Yrotation Zrotation
									JOINT RightHandIndex2
									{
										OFFSET -3.551727 0.000000 -0.000000
										CHANNELS 3 Xrotation Yrotation Zrotation
										JOINT RightHandIndex3
										{
											OFFSET -2.894196 0.000000 0.000000
											CHANNELS 3 Xrotation Yrotation Zrotation
											End Site
											{
												OFFSET 1.000603 2.690872 0.366626
											}
										}
									}
								}
								JOINT RightHandMiddle1
								{
									OFFSET -13.776489 0.000000 0.000000
									CHANNELS 3 Xrotation Yrotation Zrotation
									JOINT RightHandMiddle2
									{
										OFFSET -3.438232 0.000000 0.000000
										CHANNELS 3 Xrotation Yrotation Zrotation
										JOINT RightHandMiddle3
										{
											OFFSET -3.691551 0.000000 0.000000
											CHANNELS 3 Xrotation Yrotation Zrotation
											End Site
											{
												OFFSET 1.082298 3.499527 0.457670
											}
										}
									}
								}
								JOINT RightHandRing1
								{
									OFFSET -13.966164 -0.268127 -3.067488
									CHANNELS 3 Xrotation Yrotation Zrotation
									JOINT RightHandRing2
									{
										OFFSET -3.162567 0.000000 0.000000
										CHANNELS 3 Xrotation Yrotation Zrotation
										JOINT RightHandRing3
										{
											OFFSET -3.324348 0.000000 0.000000
											CHANNELS 3 Xrotation Yrotation Zrotation
											End Site
											{
												OFFSET 0.861900 3.184998 0.405154
											}
										}
									}
								}
								JOINT RightHandPinky1
								{
									OFFSET -13.131393 -0.168503 -5.746925
									CHANNELS 3 Xrotation Yrotation Zrotation
									JOINT RightHandPinky2
									{
										OFFSET -2.849182 0.000000 0.000000
										CHANNELS 3 Xrotation Yrotation Zrotation
										JOINT RightHandPinky3
										{
											OFFSET -2.805038 0.000000 0.000000
											CHANNELS 3 Xrotation Yrotation Zrotation
											End Site
											{
												OFFSET 0.882500 2.642609 0.325652
											}
										}
									}
								}
							}
							JOINT Right_Sleeve
							{
								OFFSET -6.592125 -0.646545 0.805568
								CHANNELS 3 Xrotation Yrotation Zrotation
								End Site
								{
									OFFSET 0.000179 20.275787 -0.000000
								}
							}
						}
					}
				}
				JOINT Bind_Right_JacketString
				{
					OFFSET -3.534800 11.969597 7.200700
					CHANNELS 3 Xrotation Yrotation Zrotation
					JOINT Bind_Right_JacketString1
					{
						OFFSET -0.319900 -6.102600 2.794100
						CHANNELS 3 Xrotation Yrotation Zrotation
						End Site
						{
							OFFSET 0.000000 6.719452 0.000000
						}
					}
				}
				JOINT Bind_Left_JacketString
				{
					OFFSET 2.904800 11.969597 7.200700
					CHANNELS 3 Xrotation Yrotation Zrotation
					JOINT Bind_Left_JacketString1
					{
						OFFSET 0.364800 -5.904503 3.186800
						CHANNELS 3 Xrotation Yrotation Zrotation
						End Site
						{
							OFFSET 0.000000 6.719513 0.000000
						}
					}
				}
				JOINT HairE
				{
					OFFSET 5.915200 17.612701 -11.592200
					CHANNELS 3 Xrotation Yrotation Zrotation
					JOINT HairE1
					{
						OFFSET 0.289200 -7.171898 -1.284500
						CHANNELS 3 Xrotation Yrotation Zrotation
						End Site
						{
							OFFSET 0.000000 7.291756 0.000000
						}
					}
				}
				JOINT HairF
				{
					OFFSET -0.864800 17.612701 -11.592200
					CHANNELS 3 Xrotation Yrotation Zrotation
					JOINT HairF1
					{
						OFFSET 0.000000 -14.087097 -2.127501
						CHANNELS 3 Xrotation Yrotation Zrotation
						End Site
						{
							OFFSET 0.000000 14.246841 0.000000
						}
					}
				}
				JOINT HairG
				{
					OFFSET -8.087700 17.612701 -11.592200
					CHANNELS 3 Xrotation Yrotation Zrotation
					JOINT HairG1
					{
						OFFSET -0.293600 -6.081398 -0.910100
						CHANNELS 3 Xrotation Yrotation Zrotation
						End Site
						{
							OFFSET 0.000000 6.156120 0.000000
						}
					}
				}
			}
		}
	}
	JOINT Pouch
	{
		OFFSET 0.000000 4.394501 10.847300
		CHANNELS 3 Xrotation Yrotation Zrotation
		End Site
		{
			OFFSET 0.000000 21.880577 0.000000
		}
	}
	JOINT Bag
	{
		OFFSET -13.229000 4.813004 -0.593300
		CHANNELS 3 Xrotation Yrotation Zrotation
		End Site
		{
			OFFSET 0.000000 21.880577 0.000000
		}
	}
	JOINT OccupyGuyFacialAnim_Joint
	{
		OFFSET 1.000000 -70.206398 -1.655000
		CHANNELS 3 Xrotation Yrotation Zrotation
		End Site
		{
			OFFSET 0.000000 21.880577 0.000000
		}
	}
}
MOTION
Frames: 4
Frame Time: 0.033333
-93.023338 53.275047 11.998181 -0.702773 33.752462 2.277896 -0.000000 0.000001 0.000000 2.715270 7.857657 2.754050 74.316597 16.349245 -0.340653 -51.785132 22.064668 -13.566053 0.000001 -0.000000 0.000000 0.000000 0.000002 -0.000000 -56.873872 -3.853403 -8.936012 22.508882 -7.683885 10.047413 15.087143 -27.883289 -21.074322 0.000000 -0.000000 0.000000 0.000004 0.000000 -0.000001 10.443472 -10.901522 9.194498 2.406692 -3.189899 0.920791 2.410191 -3.128624 0.996281 1.585980 0.030752 1.884144 15.734591 0.953868 17.844523 0.000001 -0.000001 -0.000000 0.000001 -0.000001 -0.000000 0.000001 -0.000001 -0.000001 0.000001 -0.000001 -0.000000 0.000001 -0.000000 0.000001 0.000001 -0.000001 -0.000000 0.000001 -0.000000 0.000001 0.000001 -0.000001 -0.000000 0.000001 -0.000001 -0.000000 -0.611106 -14.643688 -21.999254 7.237023 -60.701080 -8.356559 -0.000038 -113.507669 -0.000019 59.410741 -18.076632 20.096022 -1.517457 -13.243053 -5.526029 8.972410 38.666118 3.974500 0.000000 -0.000001 -0.000001 0.570644 4.200369 -43.330566 0.777321 2.917959 -29.828297 -0.000006 -0.000001 0.000003 2.209725 6.895958 -47.343849 1.862282 4.284182 -46.972119 0.000001 0.000001 0.000004 4.284149 8.301738 -55.982460 2.345810 4.687818 -53.148017 -0.000002 0.000001 0.000001 3.409783 14.518148 -45.819849 1.672199 4.099004 -44.371805 0.000000 -0.000003 0.000002 0.000004 -0.000000 -0.000001 0.010055 6.434873 31.986684 -11.253242 -16.299300 28.082432 0.000001 8.246414 0.000001 -1.357276 -3.076686 -6.814744 -3.538042 10.363344 0.332753 7.379979 -25.072426 -3.132807 0.000002 0.000001 -0.000000 -0.111307 -1.988264 18.270061 0.056190 -0.722039 8.899699 -0.000001 0.000001 0.000002 0.235408 -3.638859 21.294937 0.263128 -1.544759 19.332140 0.000001 0.000001 -0.000002 0.536888 -4.382942 22.800590 0.295574 -1.634280 20.501890 0.000000 -0.000001 -0.000001 -2.182959 -5.556942 17.312291 0.162235 -1.219771 15.151602 -0.000000 0.000000 -0.000001 -0.000000 0.000000 0.000001 0.000000 -0.000001 -0.000000 0.000002 -0.000001 0.000000 0.000000 -0.000001 -0.000000 0.000000 -0.000001 -0.000000 0.000000 -0.000001 -0.000000 0.000002 -0.000001 -0.000000 0.000000 -0.000001 -0.000000 0.000000 -0.000001 -0.000000 0.000000 -0.000001 -0.000000 0.000002 -0.000001 -0.000000 -0.000000 0.000001 0.000000 -0.000000 0.000001 0.000000 -0.000000 0.000001 0.000000 
-92.875420 53.211372 12.160821 -1.812986 33.796087 3.135580 0.000000 0.000004 0.000000 4.815396 8.002597 2.199023 72.687413 15.956876 -0.205727 -53.080371 21.971942 -12.464987 0.000000 -0.000002 0.000000 -0.000000 -0.000000 -0.000000 -56.702253 -3.825171 -9.330835 23.862178 -7.172758 10.033220 14.673794 -27.869909 -20.785741 -0.000001 0.000000 0.000000 -0.000002 -0.000000 -0.000003 10.782266 -10.535341 9.296246 2.424969 -3.095591 1.028151 2.422424 -3.037684 1.103236 1.724159 -0.022284 2.036446 15.423298 0.383368 19.131566 -0.000000 0.000001 0.000001 -0.000000 0.000001 0.000001 -0.000000 0.000001 0.000001 -0.000000 0.000001 0.000001 -0.000001 -0.000000 -0.000000 -0.000000 0.000001 0.000001 -0.000001 -0.000000 -0.000000 -0.000000 0.000001 0.000001 -0.000000 0.000001 0.000001 -0.338004 -14.356272 -19.411746 0.797548 -61.133581 -8.302039 -0.000021 -109.506299 -0.000017 57.331215 -21.503934 19.357017 -1.141246 -13.082464 -4.864739 9.040210 39.184741 4.001310 0.000002 0.000001 -0.000002 0.597284 4.544097 -42.960227 0.750229 2.870193 -29.291010 -0.000002 0.000001 -0.000000 2.417529 7.081736 -47.639477 1.805876 4.230978 -46.212496 0.000002 -0.000001 -0.000003 4.501537 8.432949 -56.289768 2.344665 4.686966 -53.134070 -0.000001 0.000001 -0.000002 3.514389 14.870517 -46.096274 1.622889 4.048112 -43.677728 -0.000000 0.000001 -0.000000 -0.000001 0.000001 0.000000 -0.248068 7.438019 33.568252 -12.856115 -10.814612 25.029739 -0.000004 10.940741 0.000005 -3.446303 0.489901 -8.585776 -3.862276 9.310196 -0.515629 7.120359 -22.421361 -2.831289 0.000000 -0.000001 -0.000004 -0.127411 -1.792580 14.130104 0.022225 -0.454954 5.593823 -0.000001 0.000001 0.000002 0.131995 -3.254765 17.061681 0.157508 -1.202172 14.927812 0.000001 -0.000000 -0.000001 0.309729 -3.828632 17.499655 0.162424 -1.220466 15.160505 0.000000 -0.000000 -0.000003 -2.194626 -4.108401 12.989438 0.082346 -0.872824 10.778722 -0.000000 0.000001 0.000002 0.000001 0.000000 0.000000 0.000000 0.000000 -0.000001 0.000000 0.000000 -0.000001 0.000000 0.000000 -0.000000 0.000000 0.000000 -0.000000 0.000000 0.000000 -0.000001 0.000000 0.000000 -0.000001 0.000000 0.000000 -0.000000 0.000000 0.000000 -0.000000 0.000000 0.000000 -0.000001 0.000000 0.000000 -0.000001 0.000000 0.000004 0.000000 0.000000 0.000004 0.000000 0.000000 0.000004 0.000000 
-92.648361 53.151314 12.432226 -1.536250 33.913764 3.338778 0.000000 -0.000001 -0.000000 5.924199 7.958718 1.566184 70.893402 15.522805 -0.268002 -54.185352 21.846625 -11.363547 -0.000000 -0.000000 -0.000001 -0.000000 0.000000 -0.000000 -57.575749 -3.578198 -9.808012 25.160926 -6.864669 9.993158 14.647728 -27.811139 -20.240794 -0.000001 -0.000001 0.000000 -0.000000 -0.000001 -0.000003 11.396539 -10.310506 9.584771 2.473625 -3.057288 1.225100 2.462776 -3.004446 1.303272 1.441041 -0.064460 2.207180 13.383535 -0.201831 20.242271 0.000000 0.000000 0.000001 0.000000 0.000000 0.000001 0.000000 0.000000 0.000000 0.000000 0.000000 0.000001 -0.000000 -0.000000 0.000001 0.000000 0.000000 0.000001 -0.000000 -0.000000 0.000001 0.000000 0.000000 0.000001 0.000000 0.000000 0.000001 -0.021367 -14.584305 -15.760527 -8.565567 -62.750102 -10.104679 -0.000012 -102.464374 -0.000011 57.360659 -25.090594 20.085599 -1.007911 -13.003792 -4.582213 9.047917 39.190502 4.000553 0.000000 -0.000001 0.000001 0.605697 4.660417 -42.550207 0.727762 2.829853 -28.839538 -0.000000 -0.000001 0.000001 2.487206 7.144288 -47.668495 1.760604 4.187224 -45.595669 0.000001 -0.000002 -0.000001 4.574170 8.479864 -56.312847 2.339993 4.683462 -53.077024 -0.000001 -0.000000 -0.000001 3.536088 14.993317 -46.120893 1.585557 4.008760 -43.146261 -0.000002 0.000000 0.000003 -0.000002 -0.000002 -0.000001 -0.344318 7.738446 34.256001 -14.850462 -5.161132 24.082202 -0.000002 15.429872 -0.000002 -6.099483 4.067358 -9.596905 -3.750504 8.524408 -0.863646 6.971869 -20.891187 -2.636294 -0.000001 0.000000 0.000003 -0.136698 -1.706449 11.744707 0.010577 -0.314046 3.858141 -0.000000 -0.000002 -0.000002 0.112262 -3.133379 14.918265 0.114069 -1.025511 12.693715 0.000003 -0.000002 -0.000001 0.259698 -3.686578 14.876825 0.111225 -1.012802 12.533754 0.000003 -0.000001 -0.000001 -2.015329 -3.486782 10.986995 0.055438 -0.717197 8.839562 -0.000000 0.000000 0.000001 -0.000001 0.000001 -0.000001 -0.000001 0.000001 0.000000 0.000001 0.000001 0.000001 -0.000001 0.000001 0.000000 -0.000001 0.000001 0.000000 -0.000001 0.000001 0.000000 0.000001 0.000001 0.000001 -0.000001 0.000001 0.000000 -0.000001 0.000001 0.000000 -0.000001 0.000001 0.000000 0.000001 0.000001 0.000001 0.000000 -0.000001 -0.000000 0.000000 -0.000001 -0.000000 0.000000 -0.000001 -0.000000 
-92.279709 53.172569 12.913699 0.252383 34.346614 2.657750 0.000000 0.000001 -0.000000 6.079811 7.670546 1.025536 68.571780 15.103051 -0.330643 -54.872821 21.635691 -10.384083 0.000001 0.000001 0.000001 -0.000000 -0.000004 0.000000 -59.276657 -2.931698 -10.274473 26.116751 -7.180773 9.768072 15.402341 -27.767285 -19.070344 -0.000000 0.000000 -0.000000 -0.000005 -0.000001 -0.000003 11.973721 -10.496706 10.346706 2.520530 -3.150852 1.539545 2.496939 -3.103333 1.624686 0.805057 -0.094408 2.382681 10.372176 -0.702210 21.006257 -0.000000 0.000000 -0.000004 -0.000000 0.000000 -0.000004 -0.000000 0.000000 -0.000004 -0.000000 0.000000 -0.000004 -0.000001 0.000002 -0.000000 -0.000000 0.000000 -0.000004 -0.000001 0.000002 -0.000000 -0.000000 0.000000 -0.000004 -0.000000 0.000000 -0.000004 0.454755 -14.960628 -10.990039 -22.889099 -65.064245 -16.630812 -0.048885 -91.887341 -0.048703 58.830940 -28.202990 23.064468 -1.948548 -13.349314 -6.190500 8.745301 36.674274 3.855468 0.000001 0.000001 0.000002 0.521566 3.730167 -41.567497 0.709339 2.796174 -28.464231 0.000005 -0.000002 -0.000004 1.957026 6.665117 -46.831113 1.728709 4.155829 -45.157017 0.000001 0.000004 -0.000001 4.021028 8.145625 -55.421091 2.334541 4.679385 -53.010082 0.000000 -0.000004 -0.000001 3.252431 14.119931 -45.352135 1.559447 3.980783 -42.771608 -0.000000 -0.000001 -0.000001 0.000000 0.000001 -0.000000 -0.133693 6.919704 33.713926 -16.489777 0.528187 25.809483 0.000006 22.678987 -0.000026 -8.669767 7.840839 -9.763227 -3.099161 7.983729 -0.637044 6.940432 -20.534043 -2.562260 -0.000000 -0.000001 -0.000001 -0.141905 -1.744011 11.200633 0.010230 -0.309045 3.796604 0.000002 0.000003 0.000004 0.158591 -3.308357 15.006902 0.115579 -1.032191 12.777737 0.000000 0.000000 0.000003 0.351259 -4.020835 15.120442 0.116301 -1.035380 12.817902 -0.000000 0.000000 -0.000002 -1.759550 -3.743167 11.489486 0.064492 -0.773156 9.535427 -0.000001 0.000000 -0.000003 0.000002 0.000001 0.000000 0.000000 0.000000 -0.000000 0.000002 -0.000002 -0.000000 0.000000 0.000000 -0.000000 0.000000 0.000000 -0.000000 0.000000 0.000000 -0.000000 0.000002 -0.000002 -0.000000 0.000000 0.000000 -0.000000 0.000000 0.000000 -0.000000 0.000000 0.000000 -0.000000 0.000002 -0.000002 -0.000000 0.000000 0.000001 -0.000000 0.000000 0.000001 -0.000000 0.000000 0.000001 -0.000000 
